<?xml version="1.0" encoding="utf-8"?>
<!-- Generator: Adobe Illustrator 18.0.0, SVG Export Plug-In . SVG Version: 6.00 Build 0)  -->
<!DOCTYPE svg PUBLIC "-//W3C//DTD SVG 1.1//EN" "http://www.w3.org/Graphics/SVG/1.1/DTD/svg11.dtd">
<svg version="1.1" id="Layer_1" xmlns="http://www.w3.org/2000/svg" xmlns:xlink="http://www.w3.org/1999/xlink" x="0px" y="0px"
	 viewBox="0 0 32 32" enable-background="new 0 0 32 32" xml:space="preserve">
<g>
	<g transform="scale(5.33333,5.33333)">
		<path fill="#FFFFFF" d="M5.4,1.1L4.6,4.9c0,0,0,0.2-0.3,0.2c-0.2,0-0.2,0-0.2,0L2.5,3.8L1.9,3.3L0.8,3c0,0-0.2,0-0.2-0.2
			s0.2-0.2,0.2-0.2l4.3-1.7h0.2C5.4,0.9,5.4,0.9,5.4,1.1L5.4,1.1z"/>
		<path fill="#B0BEC5" d="M3.2,4.3L2.5,4.9l0,0l0,0l0.2-1.1L3.2,4.3z"/>
		<path fill="#CFD8DC" d="M4.6,1.7C4.6,1.7,4.4,1.7,4.6,1.7L1.9,3.3c0,0,0.5,1.1,0.5,1.4c0,0.2,0.2,0.2,0.2,0.2l0.2-1.1L4.6,1.7
			C4.6,1.9,4.6,1.7,4.6,1.7z"/>
	</g>
</g>
</svg>
