<?xml version="1.0" encoding="utf-8"?>
<!-- Generator: Adobe Illustrator 18.0.0, SVG Export Plug-In . SVG Version: 6.00 Build 0)  -->
<!DOCTYPE svg PUBLIC "-//W3C//DTD SVG 1.1//EN" "http://www.w3.org/Graphics/SVG/1.1/DTD/svg11.dtd">
<svg version="1.1" id="Layer_1" xmlns="http://www.w3.org/2000/svg" xmlns:xlink="http://www.w3.org/1999/xlink" x="0px" y="0px"
	 viewBox="0 0 32 32" enable-background="new 0 0 32 32" xml:space="preserve">
<path fill="#FEFEFE" d="M16,10.3c-3.1,0-5.6,2.6-5.6,5.6c0,3.1,2.5,5.6,5.6,5.6c3.1,0,5.6-2.5,5.6-5.6C21.7,12.9,19.1,10.3,16,10.3z
	 M16,19.7c-2,0-3.7-1.6-3.7-3.7c0-2,1.6-3.6,3.7-3.6c2,0,3.6,1.6,3.6,3.6C19.7,18,18,19.7,16,19.7z M23.2,10.1
	c0,0.7-0.6,1.3-1.3,1.3c-0.7,0-1.3-0.6-1.3-1.3c0-0.7,0.6-1.3,1.3-1.3C22.6,8.8,23.2,9.4,23.2,10.1z M26.9,11.5
	c-0.1-1.8-0.5-3.3-1.8-4.6c-1.3-1.3-2.8-1.7-4.6-1.8c-1.8-0.1-7.3-0.1-9.1,0C9.7,5.2,8.2,5.6,6.8,6.8c-1.3,1.3-1.7,2.8-1.8,4.6
	c-0.1,1.8-0.1,7.3,0,9.1c0.1,1.8,0.5,3.3,1.8,4.6c1.3,1.3,2.8,1.7,4.6,1.8c1.8,0.1,7.3,0.1,9.1,0c1.8-0.1,3.3-0.5,4.6-1.8
	c1.3-1.3,1.7-2.8,1.8-4.6C27,18.7,27,13.3,26.9,11.5z M24.6,22.5c-0.3,1-1.1,1.7-2.1,2.1C21,25.2,17.6,25,16,25
	c-1.6,0-5.1,0.1-6.5-0.4c-1-0.4-1.7-1.1-2.1-2.1C6.8,21,7,17.6,7,16c0-1.6-0.1-5,0.4-6.5c0.4-0.9,1.1-1.7,2.1-2.1
	C11,6.8,14.4,7,16,7c1.6,0,5-0.1,6.5,0.4c0.9,0.3,1.7,1.1,2.1,2.1C25.2,11,25,14.4,25,16C25,17.6,25.2,21,24.6,22.5z"/>
</svg>
