<?xml version="1.0" encoding="utf-8"?>
<!-- Generator: Adobe Illustrator 18.0.0, SVG Export Plug-In . SVG Version: 6.00 Build 0)  -->
<!DOCTYPE svg PUBLIC "-//W3C//DTD SVG 1.1//EN" "http://www.w3.org/Graphics/SVG/1.1/DTD/svg11.dtd">
<svg version="1.1" id="Layer_1" xmlns="http://www.w3.org/2000/svg" xmlns:xlink="http://www.w3.org/1999/xlink" x="0px" y="0px"
	 viewBox="0 0 32 32" enable-background="new 0 0 32 32" xml:space="preserve">
<path fill="#FEFEFE" d="M26,6.8C26,6.8,26,6.8,26,6.8C24.1,6,22.2,5.4,20.1,5c0,0-0.1,0-0.1,0c-0.3,0.5-0.5,1-0.7,1.5
	c-2.2-0.3-4.4-0.3-6.6,0c-0.2-0.5-0.4-1-0.7-1.5c0,0,0,0-0.1,0C9.8,5.4,7.9,6,6,6.8c0,0,0,0,0,0c-3.7,5.6-4.8,11.1-4.3,16.5
	c0,0,0,0,0,0C3.9,25,6.3,26.2,8.9,27c0,0,0,0,0.1,0c0.5-0.8,1-1.6,1.5-2.4c0,0,0-0.1,0-0.1c-0.8-0.3-1.6-0.6-2.3-1.1
	c0,0-0.1-0.1,0-0.1c0.1-0.1,0.3-0.2,0.4-0.3c0,0,0,0,0.1,0c4.7,2.2,9.8,2.2,14.5,0c0,0,0,0,0.1,0c0.1,0.1,0.3,0.2,0.4,0.3
	c0,0,0,0.1,0,0.1c-0.7,0.4-1.5,0.8-2.3,1.1c0,0,0,0.1,0,0.1c0.4,0.8,0.9,1.6,1.5,2.4c0,0,0,0,0.1,0c2.6-0.8,5.1-2,7.2-3.6
	c0,0,0,0,0,0C30.9,17.1,29.3,11.7,26,6.8z M11.2,20c-1.4,0-2.6-1.3-2.6-2.9c0-1.6,1.2-2.9,2.6-2.9c1.5,0,2.6,1.3,2.6,2.9
	C13.8,18.7,12.6,20,11.2,20z M20.8,20c-1.4,0-2.6-1.3-2.6-2.9c0-1.6,1.1-2.9,2.6-2.9c1.5,0,2.7,1.3,2.6,2.9
	C23.4,18.7,22.3,20,20.8,20z"/>
</svg>
